<svg width="240" height="240" viewBox="0 0 240 240" fill="none" xmlns="http://www.w3.org/2000/svg">
  <rect x="32" y="64" width="176" height="132" rx="36" fill="#0EA5E9"/>
  <rect x="44" y="76" width="152" height="108" rx="28" fill="#E0F2FE"/>
  <rect x="88" y="32" width="64" height="22" rx="11" fill="#0EA5E9"/>
  <rect x="114" y="16" width="12" height="22" rx="6" fill="#0EA5E9"/>
  <circle cx="92" cy="116" r="16" fill="#0F172A"/>
  <circle cx="148" cy="116" r="16" fill="#0F172A"/>
  <circle cx="92" cy="116" r="8" fill="#FACC15"/>
  <circle cx="148" cy="116" r="8" fill="#FACC15"/>
  <rect x="92" y="150" width="56" height="10" rx="5" fill="#0F172A"/>
  <rect x="24" y="110" width="16" height="48" rx="8" fill="#38BDF8"/>
  <rect x="200" y="110" width="16" height="48" rx="8" fill="#38BDF8"/>
  <circle cx="64" cy="204" r="14" fill="#0EA5E9"/>
  <circle cx="176" cy="204" r="14" fill="#0EA5E9"/>
  <path d="M64 204C70 194 82 188 94 188H146C158 188 170 194 176 204" stroke="#38BDF8" stroke-width="6" stroke-linecap="round"/>
  <circle cx="64" cy="204" r="7" fill="#E0F2FE"/>
  <circle cx="176" cy="204" r="7" fill="#E0F2FE"/>
</svg>

